<svg xmlns="http://www.w3.org/2000/svg" width="407" height="122" viewBox="0 0 407 122" fill="none"><path d="M163.5 70C163.5 70.1333 163.4 71.7 163.2 74.7H123.8C124.6 77.5 126.133 79.6667 128.4 81.2C130.733 82.6667 133.633 83.4 137.1 83.4C139.7 83.4 141.933 83.0333 143.8 82.3C145.733 81.5667 147.667 80.3667 149.6 78.7L159.6 89.1C154.333 94.9667 146.633 97.9 136.5 97.9C130.167 97.9 124.6 96.7 119.8 94.3C115 91.9 111.267 88.5667 108.6 84.3C106 80.0333 104.7 75.2 104.7 69.8C104.7 64.4667 105.967 59.7 108.5 55.5C111.1 51.2333 114.667 47.9 119.2 45.5C123.733 43.1 128.833 41.9 134.5 41.9C139.9 41.9 144.8 43.0333 149.2 45.3C153.6 47.5 157.067 50.7333 159.6 55C162.2 59.2 163.5 64.2 163.5 70ZM134.6 55.4C131.667 55.4 129.2 56.2333 127.2 57.9C125.267 59.5667 124.033 61.8333 123.5 64.7H145.7C145.167 61.8333 143.9 59.5667 141.9 57.9C139.967 56.2333 137.533 55.4 134.6 55.4ZM207.56 41.9C214.293 41.9 219.693 43.9 223.76 47.9C227.893 51.9 229.96 57.9333 229.96 66V97H210.96V69.1C210.96 61.7 207.993 58 202.06 58C198.793 58 196.16 59.0667 194.16 61.2C192.227 63.3333 191.26 66.5333 191.26 70.8V97H172.26V42.8H190.36V48.7C192.493 46.5 195.027 44.8333 197.96 43.7C200.893 42.5 204.093 41.9 207.56 41.9ZM279.289 94.8C277.689 95.8 275.722 96.5667 273.389 97.1C271.122 97.6333 268.689 97.9 266.089 97.9C259.022 97.9 253.589 96.1667 249.789 92.7C245.989 89.2333 244.089 84.0667 244.089 77.2V59H236.189V44.8H244.089V30.7H263.089V44.8H275.489V59H263.089V77C263.089 78.9333 263.589 80.4667 264.589 81.6C265.656 82.6667 267.056 83.2 268.789 83.2C270.989 83.2 272.922 82.6333 274.589 81.5L279.289 94.8ZM312.253 97.9C306.453 97.9 301.22 96.7 296.553 94.3C291.886 91.9 288.22 88.5667 285.553 84.3C282.953 80.0333 281.653 75.2 281.653 69.8C281.653 64.4667 282.953 59.6667 285.553 55.4C288.22 51.1333 291.853 47.8333 296.453 45.5C301.12 43.1 306.386 41.9 312.253 41.9C318.12 41.9 323.386 43.1 328.053 45.5C332.72 47.8333 336.353 51.1333 338.953 55.4C341.553 59.6 342.853 64.4 342.853 69.8C342.853 75.2 341.553 80.0333 338.953 84.3C336.353 88.5667 332.72 91.9 328.053 94.3C323.386 96.7 318.12 97.9 312.253 97.9ZM312.253 82.8C315.586 82.8 318.32 81.6667 320.453 79.4C322.586 77.0667 323.653 73.8667 323.653 69.8C323.653 65.8 322.586 62.6667 320.453 60.4C318.32 58.1333 315.586 57 312.253 57C308.92 57 306.186 58.1333 304.053 60.4C301.92 62.6667 300.853 65.8 300.853 69.8C300.853 73.8667 301.92 77.0667 304.053 79.4C306.186 81.6667 308.92 82.8 312.253 82.8ZM384.492 97L374.792 82.8L364.392 97H343.792L364.392 69.9L344.392 42.8H365.792L375.392 56.5L385.392 42.8H405.492L385.492 69.2L406.192 97H384.492Z" fill="#0E0E0E"></path><path d="M36.0386 29.8528L6.01529 47.1162C2.91267 48.9002 1 52.2063 1 55.7853V85.8381C1 89.3507 2.84299 92.6058 5.85505 94.413L35.8225 112.394C39.0065 114.304 42.9868 114.293 46.1601 112.365L75.6926 94.421C78.6776 92.6073 80.5 89.3676 80.5 85.8748V55.3123C80.5 51.7189 78.572 48.4017 75.4495 46.6232L45.9729 29.8327C42.8921 28.0778 39.1123 28.0854 36.0386 29.8528Z" fill="#0AA5CD" stroke="#0AA5CD"></path><path d="M51.4082 50H35C29.4772 50 25 54.4772 25 60V82.3319C25 87.92 29.5794 92.4237 35.1666 92.3306L52.2582 92.0457C53.9528 92.0175 55.5015 91.0806 56.3131 89.5927C57.3132 87.7591 56.9858 85.4858 55.509 84.009L55.1035 83.6035C54.0768 82.5768 52.6843 82 51.2323 82H39.831C39.3291 82 38.8778 82.3056 38.6914 82.7716C38.3641 83.5898 37.3068 83.8068 36.6837 83.1837L34.521 81.021C33.1801 79.6801 33.3123 77.4689 34.8034 76.2974L37.4078 74.251C38.1247 73.6878 39.183 74.098 39.3329 74.9973C39.4293 75.5759 39.9299 76 40.5165 76H48.5254C50.0895 76 51.5688 75.289 52.5459 74.0676C53.9951 72.2561 54.0539 69.6991 52.6894 67.8229L52.6011 67.7014C51.5951 66.3183 49.9882 65.5 48.2779 65.5H40.4404C39.9211 65.5 39.5 65.9211 39.5 66.4405C39.5 67.2463 38.5526 67.6789 37.9436 67.1511L34.8985 64.512C33.4692 63.2733 33.6671 60.9998 35.289 60.0266L38.405 58.157C38.8869 57.8679 39.5 58.215 39.5 58.777C39.5 59.1763 39.8237 59.5 40.223 59.5H51.1758C52.6448 59.5 54.0342 58.8322 54.9519 57.6851L55.0456 57.568C56.4634 55.7958 56.3975 53.2597 54.8897 51.5634C54.0058 50.569 52.7387 50 51.4082 50Z" fill="white" stroke="white"></path></svg>