<?xml version="1.0" encoding="utf-8"?>
<svg version="1.1" xmlns="http://www.w3.org/2000/svg" xmlns:xlink="http://www.w3.org/1999/xlink" x="0px" y="0px"
	 viewBox="0 0 48 48" style="enable-background:new 0 0 48 48;" xml:space="preserve" id="img" fill="currentColor">
<g fill="none"  stroke="currentColor" stroke-linecap="round" stroke-linejoin="round" stroke-width="3.0">
<path d="m36.05 24.1741c.1922-6.6909-5.076-12.2709-11.7669-12.4631s-12.2708 5.076-12.4631 11.7669c-.0067.232-.0067.4642 0 .6962" fill="none"/>
<path d="m13.2416 18.1154c-4.9162.3127-8.7088 4.496-8.511 9.4448.1916 4.7943 4.0727 8.6161 8.8694 8.7339h24c3.2253 0 5.8401-2.6145 5.8401-5.8399 0-1.8488-.8754-3.5885-2.3601-4.6901h.05c.151-.5168.2317-1.0516.24-1.59 0-3.2309-2.6191-5.85-5.85-5.85-.2512.0079-.5018.0293-.7507.0642" fill="none"/>
<path d="m21.24 30.0441v-10.74h3.49c2.002.1052 3.5397 1.8134 3.4345 3.8155-.0975 1.855-1.5796 3.3371-3.4345 3.4345h-3.49" fill="none"/>
</g>
</svg>